<svg width="176" height="44" viewBox="0 0 176 44" fill="none" xmlns="http://www.w3.org/2000/svg">
<path d="M47.9904 3.11163H51.672L54.1312 12.7916H54.1744L57.3899 3.11163H60.5435L63.7398 13.0482H63.7829L66.3702 3.11163H69.8048L65.319 18.2311H62.2987L58.9072 7.78137H58.8645L55.4774 18.2311H52.5616L47.9904 3.11163Z" fill="#19252C"/>
<path d="M76.7542 16.9063H76.7115C76.3744 17.4405 75.8756 17.8581 75.2843 18.1005C74.6806 18.3421 74.0341 18.4642 73.3819 18.4598C72.8985 18.4626 72.4175 18.395 71.9547 18.2592C71.5164 18.1343 71.1064 17.9285 70.7467 17.6527C70.3995 17.3816 70.117 17.0392 69.919 16.6497C69.7075 16.213 69.6029 15.7336 69.6144 15.2502C69.5991 14.7254 69.7147 14.2047 69.9521 13.7341C70.1712 13.3284 70.4839 12.9786 70.8656 12.7124C71.267 12.4337 71.7121 12.221 72.183 12.0826C72.6841 11.9329 73.1963 11.8221 73.7147 11.7514C74.2418 11.6815 74.7722 11.6394 75.3035 11.6255C75.8315 11.6255 76.3216 11.6021 76.7686 11.6021C76.7791 11.3451 76.7288 11.0892 76.6214 10.8545C76.5139 10.6198 76.3528 10.4126 76.1504 10.2493C75.7361 9.91717 75.2153 9.74026 74.6806 9.75011C74.1717 9.74289 73.6692 9.85652 73.2155 10.0813C72.7657 10.3069 72.3638 10.614 72.031 10.9864L70.2902 9.23693C70.9026 8.67899 71.6291 8.25449 72.4209 7.9914C73.2313 7.71334 74.0835 7.57292 74.9419 7.57617C75.75 7.5503 76.5557 7.66886 77.3206 7.92607C77.9004 8.13325 78.4116 8.49128 78.7995 8.9617C79.1856 9.4521 79.4494 10.0239 79.5702 10.6318C79.7237 11.3874 79.797 12.1566 79.7889 12.927V18.2312H76.7878L76.7542 16.9063ZM75.9505 13.6408C75.703 13.6408 75.3937 13.6408 75.0278 13.6734C74.6667 13.6949 74.3094 13.7559 73.9622 13.8554C73.6409 13.947 73.344 14.1062 73.0918 14.3219C72.9719 14.4247 72.8769 14.5528 72.8141 14.6966C72.7518 14.8403 72.723 14.9961 72.7302 15.1523C72.7244 15.3265 72.7685 15.4989 72.8577 15.6498C72.9469 15.8007 73.0774 15.9241 73.2342 16.006C73.5507 16.1866 73.9099 16.2816 74.2763 16.2812C74.588 16.2822 74.8988 16.2398 75.199 16.1552C75.4824 16.078 75.751 15.955 75.9931 15.7914C76.2363 15.6335 76.4334 15.4173 76.5667 15.1633C76.7 14.9093 76.7648 14.626 76.7542 14.3405V13.6594L75.9505 13.6408Z" fill="#19252C"/>
<path d="M87.7756 10.8929C87.5516 10.61 87.2624 10.3833 86.9315 10.2316C86.6006 10.0798 86.2381 10.0075 85.8731 10.0205C85.5916 10.02 85.3145 10.0856 85.0641 10.2118C84.9394 10.2704 84.8354 10.3645 84.7658 10.4818C84.6963 10.5991 84.6646 10.7343 84.6742 10.8696C84.6728 10.9939 84.7112 11.1156 84.7836 11.2176C84.856 11.3197 84.9591 11.397 85.0785 11.4387C85.4065 11.5774 85.7475 11.6836 86.0966 11.756L87.4236 12.0545C87.8883 12.1594 88.3352 12.3291 88.7505 12.5583C89.162 12.7856 89.5126 13.1054 89.7734 13.4914C90.0607 13.9639 90.1998 14.5092 90.1729 15.0588C90.1974 15.6403 90.0434 16.2156 89.7308 16.7103C89.4368 17.1397 89.0459 17.4972 88.5889 17.7552C88.1036 18.027 87.5742 18.2147 87.0241 18.3104C86.4577 18.4156 85.8832 18.4687 85.3068 18.469C84.5491 18.4669 83.7957 18.3633 83.0663 18.1611C82.3426 17.9717 81.6846 17.5928 81.1638 17.0648L83.1425 14.9096C83.4163 15.2557 83.7597 15.5431 84.151 15.7539C84.5519 15.9511 84.9965 16.0488 85.4449 16.0385C85.7926 16.0439 86.1383 15.9902 86.4673 15.8799C86.6035 15.8518 86.7253 15.7783 86.8121 15.6719C86.8985 15.5655 86.945 15.4329 86.9431 15.2968C86.9455 15.167 86.908 15.0396 86.8361 14.9308C86.7642 14.8219 86.6606 14.7366 86.5388 14.6856C86.2151 14.5321 85.8731 14.4177 85.5211 14.3451L84.1937 14.0465C83.7329 13.9477 83.2869 13.791 82.8668 13.58C82.4428 13.3584 82.0851 13.032 81.8299 12.633C81.5422 12.1604 81.4031 11.6152 81.43 11.0655C81.4132 10.5162 81.5441 9.97224 81.8108 9.48877C82.0553 9.05699 82.3973 8.68534 82.8097 8.40178C83.2423 8.10832 83.7257 7.89487 84.2364 7.772C84.7697 7.63795 85.3178 7.57056 85.8683 7.57142C86.5815 7.57319 87.2907 7.67367 87.9756 7.86995C88.6661 8.05489 89.2915 8.42287 89.783 8.9336L87.7756 10.8929Z" fill="#19252C"/>
<path d="M99.0583 10.4031H96.2044V13.8552C96.2029 14.1155 96.2173 14.3757 96.2471 14.6343C96.2696 14.8473 96.3358 15.0537 96.4422 15.2407C96.5525 15.4202 96.7194 15.5595 96.918 15.6373C97.1841 15.7406 97.469 15.7883 97.7553 15.7772C97.9845 15.773 98.2133 15.7543 98.4401 15.7213C98.6746 15.7071 98.8986 15.6223 99.0822 15.4786V18.1424C98.7163 18.2711 98.3365 18.3572 97.95 18.399C97.5678 18.4397 97.1836 18.46 96.799 18.4596C96.2869 18.4638 95.7756 18.4075 95.2769 18.2917C94.8381 18.1907 94.4242 18.0051 94.0593 17.7459C93.7087 17.4953 93.4287 17.1614 93.2459 16.7755C93.0378 16.3214 92.9366 15.827 92.951 15.3294V10.4031H90.8673V7.84195H92.951V4.77234H96.214V7.84195H99.0679L99.0583 10.4031Z" fill="#19252C"/>
<path d="M110.713 16.4164C110.187 17.0701 109.508 17.5888 108.733 17.9279C107.956 18.2776 107.111 18.459 106.256 18.4597C105.474 18.466 104.698 18.3365 103.963 18.0771C103.271 17.8373 102.636 17.4646 102.093 16.9809C101.56 16.4998 101.133 15.9152 100.842 15.2641C100.541 14.5546 100.386 13.7936 100.386 13.0249C100.386 12.2562 100.541 11.4952 100.842 10.7857C101.133 10.1346 101.56 9.54999 102.093 9.06891C102.636 8.58519 103.271 8.21249 103.963 7.97264C104.698 7.71328 105.474 7.58376 106.256 7.59008C106.96 7.58066 107.659 7.71079 108.31 7.97264C108.909 8.21779 109.445 8.59256 109.875 9.06891C110.317 9.57137 110.654 10.1549 110.865 10.7857C111.103 11.5086 111.221 12.2649 111.212 13.0249V14.0325H103.644C103.75 14.6 104.051 15.1151 104.496 15.4927C104.945 15.8612 105.517 16.0539 106.103 16.0339C106.582 16.0485 107.054 15.927 107.464 15.684C107.834 15.441 108.156 15.1344 108.415 14.779L110.713 16.4164ZM107.949 11.854C107.962 11.5966 107.921 11.3394 107.827 11.0985C107.734 10.8577 107.591 10.6384 107.407 10.4544C107.22 10.262 106.994 10.1108 106.742 10.011C106.491 9.91127 106.222 9.86526 105.951 9.87597C105.625 9.86899 105.301 9.92772 105 10.0486C104.738 10.1505 104.497 10.2992 104.291 10.4871C104.092 10.6589 103.93 10.8684 103.815 11.1029C103.706 11.3348 103.643 11.5849 103.63 11.84L107.949 11.854Z" fill="#19252C"/>
<path d="M49.6027 23.6472H54.7307L58.2742 33.4951H58.3313L61.8992 23.6472H67.0075V38.7573H63.6161V27.1647H63.5638L59.5158 38.7573H56.9281L53.0374 27.1786H52.9947V38.7573H49.6027V23.6472Z" fill="#19252C"/>
<path d="M76.3403 37.4418H76.2977C75.9605 37.976 75.4618 38.3935 74.8705 38.636C74.2662 38.8753 73.6198 38.9974 72.968 38.9952C72.4846 38.9981 72.0041 38.9304 71.5409 38.7946C71.1025 38.6697 70.6925 38.4639 70.3328 38.1881C69.9856 37.917 69.7032 37.5747 69.5051 37.1852C69.2936 36.7484 69.1891 36.2691 69.2006 35.7856C69.1852 35.2608 69.3013 34.7402 69.5382 34.2695C69.7579 33.8639 70.0705 33.514 70.4518 33.2478C70.8532 32.9692 71.2982 32.7564 71.7691 32.6181C72.2703 32.4683 72.7825 32.3576 73.3009 32.2869C73.8265 32.2171 74.3549 32.1751 74.8849 32.1609C75.4177 32.1609 75.9078 32.1609 76.3547 32.1609C76.3653 31.9039 76.3149 31.648 76.2075 31.4133C76.1001 31.1786 75.9389 30.9714 75.7366 30.808C75.3222 30.4759 74.8014 30.299 74.2667 30.3089C73.7584 30.3017 73.2553 30.4153 72.8016 30.6401C72.3508 30.8641 71.949 31.1714 71.6171 31.5451L69.8763 29.7957C70.4892 29.2377 71.2152 28.8133 72.007 28.5501C72.8175 28.2721 73.6701 28.1317 74.5281 28.135C75.3361 28.1091 76.1418 28.2276 76.9067 28.4848C77.4855 28.6933 77.9967 29.0511 78.3857 29.5205C78.7717 30.0109 79.0355 30.5827 79.1563 31.1906C79.3098 31.9462 79.3832 32.7154 79.3755 33.4858V38.7573H76.3739L76.3403 37.4418ZM75.5366 34.1762C75.2891 34.1762 74.9803 34.1762 74.6139 34.2089C74.2523 34.2258 73.8946 34.2869 73.5483 34.3908C73.227 34.4824 72.9302 34.6416 72.6779 34.8573C72.5575 34.9597 72.4621 35.0878 72.3993 35.2316C72.3369 35.3755 72.3087 35.5314 72.3163 35.6877C72.3106 35.862 72.3547 36.0343 72.4439 36.1852C72.5331 36.3361 72.6635 36.4595 72.8203 36.5414C73.1378 36.72 73.4965 36.8149 73.8624 36.8166C74.1746 36.8176 74.4849 36.7753 74.7851 36.6907C75.0681 36.6114 75.3361 36.4885 75.5793 36.3268C75.8224 36.169 76.0195 35.9527 76.1528 35.6987C76.2862 35.4447 76.3509 35.1614 76.3403 34.8759V34.1948L75.5366 34.1762Z" fill="#19252C"/>
<path d="M81.3825 28.3775H84.6459V30.043H84.6886C84.9773 29.471 85.4032 28.9763 85.9302 28.6014C86.4688 28.2702 87.0975 28.1075 87.7329 28.1349C87.9185 28.1349 88.1084 28.1349 88.2988 28.1349C88.4738 28.147 88.6474 28.1751 88.8172 28.2189V31.1392C88.5927 31.0715 88.364 31.0185 88.1324 30.9806C87.8993 30.9464 87.6638 30.9293 87.4284 30.9293C86.9219 30.9067 86.417 30.9944 85.9489 31.1859C85.6051 31.3384 85.314 31.5865 85.1121 31.8997C84.9059 32.2338 84.7759 32.6078 84.7313 32.9959C84.6723 33.4601 84.6435 33.9276 84.6459 34.3955V38.7573H81.3825V28.3775Z" fill="#19252C"/>
<path d="M90.23 22.621H93.4929V32.4736L97.1035 28.3777H101.099L96.9036 33.0428L101.209 38.7574H97.1035L93.5313 33.4952H93.4886V38.7574H90.2252L90.23 22.621Z" fill="#19252C"/>
<path d="M112.32 36.952C111.795 37.6058 111.116 38.1245 110.341 38.4635C109.564 38.8137 108.719 38.9951 107.863 38.9954C107.082 39.0017 106.306 38.8722 105.571 38.6128C104.879 38.373 104.244 38.0002 103.701 37.5165C103.167 37.0355 102.741 36.4509 102.45 35.7998C102.149 35.0903 101.994 34.3292 101.994 33.5605C101.994 32.7919 102.149 32.0309 102.45 31.3213C102.741 30.6703 103.167 30.0856 103.701 29.6046C104.244 29.1209 104.879 28.7482 105.571 28.5083C106.306 28.2489 107.082 28.1194 107.863 28.1258C108.568 28.1164 109.266 28.2464 109.918 28.5083C110.517 28.7535 111.052 29.1282 111.483 29.6046C111.925 30.1071 112.262 30.6906 112.473 31.3213C112.711 32.0443 112.829 32.8006 112.82 33.5605V34.5589H105.252C105.358 35.1264 105.658 35.6414 106.103 36.019C106.553 36.3875 107.125 36.5802 107.711 36.5602C108.19 36.5756 108.662 36.4541 109.072 36.2103C109.442 35.9673 109.764 35.6607 110.023 35.3053L112.32 36.952ZM109.557 32.3896C109.57 32.1323 109.528 31.8751 109.435 31.6342C109.342 31.3933 109.198 31.174 109.014 30.9901C108.828 30.7976 108.601 30.6465 108.35 30.5467C108.099 30.447 107.829 30.4009 107.559 30.4116C107.233 30.4046 106.909 30.4634 106.608 30.5842C106.347 30.6867 106.107 30.8336 105.899 31.0181C105.514 31.3722 105.283 31.8587 105.257 32.3757L109.557 32.3896Z" fill="#19252C"/>
<path d="M121.995 30.9387H119.141V34.3908C119.14 34.6511 119.154 34.9112 119.184 35.1699C119.209 35.3825 119.275 35.5884 119.379 35.7763C119.491 35.9543 119.658 36.0931 119.855 36.1729C120.121 36.2762 120.406 36.3238 120.692 36.3128C120.922 36.3083 121.15 36.2896 121.377 36.2568C121.611 36.2387 121.834 36.1544 122.019 36.0142V38.678C121.653 38.8056 121.273 38.8917 120.887 38.9346C120.505 38.9753 120.121 38.9956 119.736 38.9952C119.223 38.9997 118.712 38.9433 118.214 38.8273C117.776 38.7251 117.362 38.5397 116.996 38.2815C116.645 38.0298 116.364 37.6963 116.178 37.3111C115.972 36.8565 115.873 36.3623 115.888 35.865V30.9387H113.8V28.3775H115.888V25.3079H119.146V28.3775H122L121.995 30.9387Z" fill="#19252C"/>
<path d="M123.974 28.3777H126.976V29.7446H127.018C127.166 29.5383 127.337 29.3489 127.528 29.1801C127.751 28.9776 127.999 28.8022 128.265 28.6576C128.559 28.496 128.87 28.3661 129.192 28.2704C129.538 28.1712 129.897 28.1225 130.258 28.1258C130.986 28.1162 131.709 28.2494 132.384 28.5176C133.007 28.7682 133.568 29.1468 134.03 29.6279C134.491 30.1182 134.849 30.694 135.081 31.3213C135.335 32.0123 135.461 32.7422 135.452 33.4766C135.454 34.1819 135.341 34.883 135.114 35.5526C134.906 36.1896 134.584 36.7852 134.163 37.3113C133.754 37.8214 133.238 38.2398 132.65 38.5382C132.026 38.8552 131.331 39.0155 130.629 39.0047C129.981 39.0099 129.337 38.9058 128.726 38.6968C128.154 38.4928 127.657 38.1256 127.299 37.6425H127.256V43.6091H123.974V28.3777ZM126.976 33.5606C126.942 34.257 127.188 34.9387 127.66 35.4593C128.189 35.9251 128.874 36.1829 129.584 36.1829C130.295 36.1829 130.98 35.9251 131.509 35.4593C131.949 34.9205 132.188 34.2508 132.188 33.5606C132.188 32.8703 131.949 32.2006 131.509 31.6619C130.98 31.196 130.295 30.9383 129.584 30.9383C128.874 30.9383 128.189 31.196 127.66 31.6619C127.179 32.1789 126.924 32.8609 126.952 33.5606H126.976Z" fill="#19252C"/>
<path d="M137.384 22.621H140.647V38.7574H137.384V22.621Z" fill="#19252C"/>
<path d="M149.623 37.4418H149.579C149.243 37.9769 148.744 38.3947 148.153 38.6361C147.548 38.8754 146.902 38.9974 146.25 38.9953C145.767 38.9978 145.286 38.9302 144.823 38.7947C144.384 38.6698 143.974 38.464 143.615 38.1882C143.268 37.9181 142.986 37.5755 142.792 37.1853C142.578 36.7492 142.474 36.2694 142.487 35.7857C142.469 35.2606 142.585 34.7395 142.825 34.2696C143.044 33.8652 143.355 33.5157 143.734 33.2479C144.135 32.9693 144.58 32.7565 145.051 32.6182C145.552 32.4684 146.064 32.3577 146.583 32.287C147.11 32.217 147.64 32.175 148.171 32.161C148.699 32.161 149.189 32.161 149.636 32.161C149.647 31.904 149.597 31.6481 149.489 31.4133C149.382 31.1786 149.221 30.9715 149.018 30.8081C148.606 30.4767 148.086 30.2998 147.553 30.309C147.043 30.3012 146.539 30.4148 146.083 30.6402C145.633 30.8642 145.231 31.1715 144.899 31.5452L143.158 29.7958C143.771 29.2388 144.497 28.8145 145.289 28.5502C146.099 28.2725 146.952 28.1321 147.81 28.135C148.618 28.1083 149.424 28.2269 150.188 28.4849C150.768 28.6921 151.279 29.0501 151.668 29.5206C152.055 30.0099 152.319 30.5822 152.439 31.1906C152.594 31.9459 152.667 32.7153 152.657 33.4859V38.7574H149.656L149.623 37.4418ZM148.818 34.1763C148.571 34.1763 148.267 34.1763 147.896 34.209C147.534 34.2263 147.176 34.2873 146.83 34.3909C146.509 34.4825 146.212 34.6417 145.96 34.8574C145.84 34.9603 145.746 35.0885 145.684 35.2323C145.622 35.3762 145.594 35.5319 145.603 35.6878C145.595 35.8592 145.634 36.0296 145.718 36.1802C145.802 36.3308 145.927 36.4559 146.079 36.5415C146.396 36.7201 146.755 36.8149 147.12 36.8167C147.432 36.8177 147.743 36.7753 148.043 36.6907C148.326 36.6124 148.594 36.4895 148.837 36.3269C149.08 36.1691 149.278 35.9528 149.411 35.6988C149.544 35.4448 149.609 35.1615 149.599 34.876V34.1949L148.818 34.1763Z" fill="#19252C"/>
<path d="M161.819 31.7271C161.645 31.4866 161.413 31.2926 161.143 31.1627C160.851 31.0104 160.523 30.9333 160.192 30.9388C159.837 30.9184 159.481 30.9723 159.149 31.097C158.817 31.2216 158.516 31.4142 158.265 31.6619C157.825 32.2006 157.586 32.8702 157.586 33.5605C157.586 34.2508 157.825 34.9204 158.265 35.4592C158.516 35.7068 158.817 35.8994 159.149 36.0241C159.481 36.1488 159.837 36.2027 160.192 36.1823C160.525 36.1942 160.855 36.1134 161.143 35.949C161.397 35.8 161.625 35.6126 161.819 35.3939L163.973 37.6098C163.48 38.1135 162.862 38.4845 162.18 38.6874C161.543 38.8847 160.879 38.9884 160.211 38.9953C159.43 39.0013 158.653 38.8718 157.918 38.6128C157.227 38.3729 156.591 38.0002 156.049 37.5165C155.515 37.0354 155.089 36.4508 154.797 35.7998C154.496 35.0902 154.341 34.3292 154.341 33.5605C154.341 32.7918 154.496 32.0308 154.797 31.3213C155.089 30.6702 155.515 30.0856 156.049 29.6046C156.591 29.1208 157.227 28.7482 157.918 28.5083C158.653 28.2493 159.43 28.1198 160.211 28.1257C160.879 28.1326 161.543 28.2364 162.18 28.4336C162.862 28.6365 163.48 29.0076 163.973 29.5113L161.819 31.7271Z" fill="#19252C"/>
<path d="M175.147 36.952C174.622 37.6058 173.943 38.1245 173.168 38.4635C172.391 38.8137 171.545 38.9951 170.69 38.9954C169.909 39.0017 169.132 38.8722 168.397 38.6128C167.706 38.373 167.07 38.0002 166.528 37.5165C165.994 37.0355 165.568 36.4509 165.277 35.7998C164.975 35.0903 164.82 34.3292 164.82 33.5605C164.82 32.7919 164.975 32.0309 165.277 31.3213C165.568 30.6703 165.994 30.0856 166.528 29.6046C167.07 29.1209 167.706 28.7482 168.397 28.5083C169.132 28.2489 169.909 28.1194 170.69 28.1258C171.394 28.1164 172.093 28.2464 172.745 28.5083C173.344 28.7535 173.879 29.1282 174.31 29.6046C174.75 30.1082 175.086 30.6914 175.299 31.3213C175.538 32.0443 175.655 32.8006 175.647 33.5605V34.5589H168.079C168.185 35.1264 168.485 35.6414 168.93 36.019C169.38 36.3875 169.952 36.5802 170.538 36.5602C171.015 36.5761 171.486 36.4545 171.893 36.2103C172.264 35.9682 172.586 35.6615 172.844 35.3053L175.147 36.952ZM172.383 32.3896C172.396 32.1323 172.355 31.8751 172.261 31.6342C172.168 31.3933 172.025 31.174 171.841 30.9901C171.654 30.7976 171.428 30.6465 171.177 30.5467C170.926 30.447 170.656 30.4009 170.385 30.4116C169.772 30.3992 169.177 30.616 168.721 31.0181C168.336 31.3722 168.105 31.8587 168.079 32.3757L172.383 32.3896Z" fill="#19252C"/>
<path d="M24.3971 5.54673C21.1559 4.54591 17.664 4.65604 14.495 5.85904C11.326 7.06201 8.66853 9.28625 6.95903 12.1664L2.67798 9.7406C11.0926 0.466474 23.579 5.22018 24.3971 5.54673Z" fill="#438E61"/>
<path d="M19.8688 38.9625C7.45378 36.4247 5.42738 23.3999 5.31799 22.5835C6.03998 25.8424 7.87699 28.761 10.5239 30.8545C13.1708 32.948 16.4683 34.0905 19.8688 34.0922V38.9625Z" fill="#438E61"/>
<path d="M37.0881 9.74072C41.0742 21.604 30.462 29.8705 29.896 30.3043C31.0325 29.2827 32.003 28.0964 32.7738 26.7868C34.0827 24.5645 34.7718 22.0432 34.7718 19.4767C34.7718 16.9102 34.0827 14.389 32.7738 12.1666L37.0548 9.74072H37.0881Z" fill="#438E61"/>
<path d="M19.8878 38.9674L29.6438 24.9722L29.8721 30.3276C29.8721 30.3276 29.8721 30.3276 29.8959 30.3276C30.462 29.8938 41.0742 21.6273 37.0881 9.7641C38.8265 12.7265 39.7404 16.085 39.7382 19.5029C39.7361 22.9209 38.8178 26.2783 37.0757 29.2385C35.3336 32.1988 32.8286 34.658 29.812 36.3696C26.7953 38.0812 23.3729 38.9851 19.8878 38.9907V38.9674Z" fill="#57B07A"/>
<path d="M37.0691 9.71753L19.8308 8.43464L24.4447 5.5656H24.3972C23.579 5.23904 11.0784 0.485353 2.66376 9.76416C4.41108 6.8074 6.92003 4.35294 9.93922 2.64668C12.9584 0.940419 16.3818 0.0422974 19.8664 0.0422974C23.351 0.0422974 26.7744 0.940419 29.7936 2.64668C32.8128 4.35294 35.3217 6.8074 37.0691 9.76416V9.71753Z" fill="#57B07A"/>
<path d="M5.30857 22.5882C5.41796 23.4046 7.44431 36.4294 19.8594 38.9672C16.376 38.9593 12.9559 38.0538 9.94174 36.3414C6.92753 34.6291 4.42507 32.17 2.68503 29.2105C0.944978 26.251 0.028439 22.895 0.0272229 19.4788C0.0260068 16.0626 0.940158 12.706 2.6781 9.7453L10.1557 25.0374L5.32282 22.5509C5.32282 22.5509 5.30857 22.5742 5.30857 22.5882Z" fill="#57B07A"/>
</svg>
