<svg xmlns="http://www.w3.org/2000/svg" width="62" height="62" fill="none" style=""><rect id="backgroundrect" width="100%" height="100%" x="0" y="0" fill="none" stroke="none"/>






<g class="currentLayer" style=""><title>Layer 1</title><path d="M37.89400190734863,8.7269 C32.853901907348636,7.1402 27.424001907348632,7.3148 22.496401907348634,9.222100000000001 C17.568701907348633,11.1293 13.436301907348632,14.6557 10.778101907348631,19.222 L4.121101907348633,15.376000000000001 C17.205701907348633,0.6725099999999999 36.62180190734863,8.2092 37.89400190734863,8.7269 z" fill="#438E61" id="svg_1" class=""/><path d="M30.850801907348632,61.70569999999999 C11.545701907348633,57.682100000000005 8.394701907348633,37.0321 8.224601907348633,35.7378 C9.347301907348633,40.9045 12.203801907348634,45.5318 16.319701907348634,48.8509 C20.435601907348634,52.17 25.563201907348635,53.9814 30.850801907348632,53.9841 V61.70569999999999 z" fill="#438E61" id="svg_2" class=""/><path d="M57.63090190734863,15.376000000000001 C63.82920190734863,34.1845 47.32740190734863,47.2905 46.44730190734863,47.9783 C48.214501907348634,46.3585 49.72360190734863,44.4778 50.92220190734863,42.4016 C52.957501907348636,38.8781 54.029001907348636,34.8809 54.029001907348636,30.811799999999998 C54.029001907348636,26.742800000000003 52.957501907348636,22.7456 50.92220190734863,19.222 L57.57910190734863,15.376000000000001 H57.63090190734863 z" fill="#438E61" id="svg_3" class=""/><path d="M30.88480190734863,61.7131 L46.05520190734863,39.5246 L46.410201907348636,48.0153 C46.410201907348636,48.0153 46.410201907348636,48.0153 46.447201907348635,48.0153 C47.32740190734863,47.3275 63.82920190734863,34.2215 57.63090190734863,15.4131 C60.334001907348636,20.1098 61.755201907348635,25.4345 61.751801907348636,30.8534 C61.74840190734864,36.2724 60.32060190734863,41.5953 57.61160190734863,46.2886 C54.90260190734863,50.9819 51.00750190734863,54.8808 46.316601907348634,57.59439999999999 C41.62580190734863,60.30800000000001 36.304001907348635,61.7411 30.88480190734863,61.75 V61.7131 z" fill="#57B07A" id="svg_4" class=""/><path d="M57.600201907348634,15.339500000000001 L30.795001907348635,13.305499999999999 L37.96960190734863,8.7568 H37.89570190734863 C36.62350190734863,8.2391 17.185201907348635,0.7024400000000002 4.100601907348633,15.4134 C6.817601907348633,10.7256 10.719001907348634,6.834199999999999 15.413801907348631,4.129099999999999 C20.108601907348632,1.4239099999999993 25.43190190734863,0 30.850401907348633,0 C36.268901907348635,0 41.59220190734863,1.4239099999999993 46.28700190734863,4.129099999999999 C50.98180190734863,6.834199999999999 54.883201907348635,10.7256 57.600201907348634,15.4134 V15.339500000000001 z" fill="#57B07A" id="svg_5" class=""/><path d="M8.212401907348633,35.7447 C8.382501907348633,37.039 11.533401907348633,57.689099999999996 30.838601907348632,61.712599999999995 C25.422101907348633,61.7 20.103901907348632,60.264399999999995 15.416901907348631,57.5496 C10.729901907348633,54.8347 6.838601907348632,50.936 4.132801907348632,46.243900000000004 C1.4270919073486326,41.5518 0.0018919073486332039,36.2312 0.0000019073486328125,30.814999999999998 C-0.0018880926513675789,25.398699999999998 1.4196019073486337,20.0771 4.1221019073486325,15.383099999999999 L15.749601907348634,39.6277 L8.234601907348633,35.6855 C8.234601907348633,35.6855 8.212401907348633,35.7225 8.212401907348633,35.7447 z" fill="#57B07A" id="svg_6" class=""/></g></svg>